<?xml version="1.0" standalone="no"?>
<!DOCTYPE svg PUBLIC "-//W3C//DTD SVG 20010904//EN"
 "http://www.w3.org/TR/2001/REC-SVG-20010904/DTD/svg10.dtd">
<svg version="1.0" xmlns="http://www.w3.org/2000/svg"
 width="363.000000pt" height="363.000000pt" viewBox="0 0 363.000000 363.000000"
 preserveAspectRatio="xMidYMid meet">
<metadata>
Created by potrace 1.11, written by Peter Selinger 2001-2013
</metadata>
<g transform="translate(0.000000,363.000000) scale(0.100000,-0.100000)"
fill="#000000" stroke="none">
<path d="M147 3593 c-9 -21 -32 -70 -50 -109 -18 -39 -37 -77 -43 -85 -14 -19
-36 -118 -28 -130 3 -6 -1 -21 -10 -34 -14 -22 -16 -92 -16 -612 0 -323 3
-598 6 -610 7 -27 32 -30 41 -7 4 10 0 20 -10 26 -21 11 -23 67 -4 93 21 27
31 2 16 -40 -12 -31 -11 -36 6 -49 11 -8 23 -12 27 -9 5 2 11 -4 15 -14 4 -10
14 -25 23 -33 17 -15 17 -28 -2 -68 -10 -19 -8 -26 11 -43 16 -15 21 -28 16
-43 -3 -11 -9 -35 -11 -53 -5 -28 -2 -33 20 -39 33 -8 34 -24 1 -24 -14 0 -25
5 -25 10 0 14 -28 12 -33 -2 -5 -17 -37 8 -37 28 0 7 -9 28 -20 46 -11 18 -20
43 -20 56 0 12 -4 22 -10 22 -18 0 -11 -104 10 -145 11 -22 20 -43 20 -47 0
-4 8 -16 19 -27 10 -10 23 -27 29 -37 11 -18 11 -18 26 1 8 11 10 22 5 23 -12
5 -12 42 1 42 6 0 10 -4 10 -10 0 -14 27 -12 60 5 28 14 74 10 51 -5 -18 -10
-16 -76 2 -94 9 -9 18 -12 22 -7 10 17 37 0 32 -20 -3 -11 -1 -22 4 -25 5 -3
7 -10 4 -15 -4 -5 4 -9 17 -9 33 0 48 -18 48 -56 0 -30 -2 -32 -42 -36 -72 -8
-112 1 -124 27 -6 13 -8 27 -3 32 4 4 11 25 14 46 7 37 6 39 -16 35 -14 -2
-23 -9 -21 -17 2 -9 -5 -12 -22 -9 -14 3 -23 1 -20 -3 3 -5 1 -9 -5 -9 -5 0
-12 6 -14 13 -4 7 -6 6 -6 -4 -1 -9 -7 -22 -15 -28 -11 -9 -18 -6 -35 18 -12
16 -21 36 -21 44 0 7 -8 29 -17 48 -17 33 -18 23 -21 -351 -2 -283 1 -391 9
-407 14 -27 29 -30 29 -7 0 12 7 14 30 9 16 -4 39 -3 51 0 21 7 20 8 -10 21
-18 8 -41 24 -51 36 -24 28 -36 84 -22 101 5 6 12 29 16 50 6 32 10 37 26 32
15 -5 21 0 26 19 3 14 13 26 22 26 18 0 59 -42 90 -92 13 -21 25 -38 26 -38 1
0 2 18 3 40 1 23 -2 38 -8 35 -5 -4 -9 7 -9 24 0 24 4 29 22 28 28 -2 70 -44
65 -65 -2 -10 5 -36 15 -60 10 -24 18 -61 18 -82 0 -21 5 -42 10 -45 13 -8 13
-42 1 -49 -34 -21 -105 60 -83 95 9 14 8 16 -9 12 -10 -3 -19 -12 -19 -20 0
-21 -46 -63 -70 -63 -11 0 -20 -5 -20 -11 0 -6 -12 -26 -28 -44 -33 -39 -48
-58 -87 -110 -16 -22 -33 -42 -37 -43 -4 -2 -8 -147 -8 -323 l0 -319 141 0
c131 0 141 1 134 18 -5 9 -12 40 -18 67 -5 28 -13 59 -17 70 -5 11 -11 38 -15
60 -4 22 -11 60 -15 85 -17 86 -11 279 11 355 11 39 23 81 26 95 10 38 53 71
53 39 0 -12 63 -151 86 -189 9 -14 21 -37 27 -52 6 -16 15 -28 19 -28 4 0 8
-5 8 -12 0 -15 69 -117 96 -143 12 -11 23 -25 25 -32 6 -17 98 -122 148 -168
25 -22 61 -56 80 -75 20 -19 53 -48 73 -63 l37 -27 773 0 c606 0 777 3 787 12
11 10 14 10 18 1 3 -10 36 -13 116 -13 88 1 108 3 92 12 -28 15 -83 76 -90 98
-5 15 12 38 67 92 85 84 108 113 108 132 0 7 7 19 15 26 8 7 15 18 15 25 0 8
3 15 8 17 11 5 82 154 82 172 0 9 5 16 10 16 6 0 10 7 10 16 0 9 6 28 14 42
23 45 34 74 61 167 15 50 31 100 36 113 12 30 12 72 -1 72 -5 0 -10 -13 -10
-30 0 -16 -5 -30 -11 -30 -7 0 -9 11 -5 30 7 39 -10 39 -19 1 -5 -22 -14 -31
-36 -36 -16 -4 -29 -10 -29 -15 0 -4 8 -6 19 -3 14 3 20 -2 25 -22 4 -15 4
-36 1 -46 -7 -20 -7 -20 -25 1 -11 12 -21 17 -24 11 -4 -6 -13 -8 -20 -5 -10
4 -12 -2 -9 -20 6 -30 1 -32 -20 -11 -13 12 -15 11 -19 -15 -5 -32 1 -37 20
-18 17 17 15 2 -4 -27 -9 -14 -20 -22 -25 -19 -5 3 -9 0 -9 -5 0 -6 7 -11 15
-11 8 0 15 -4 15 -10 0 -5 -6 -9 -12 -7 -8 1 -12 -8 -11 -25 1 -23 -2 -28 -22
-28 -24 0 -51 -31 -38 -44 3 -3 1 -6 -5 -6 -7 0 -12 7 -12 15 0 8 -5 15 -11
15 -7 0 -9 -13 -5 -37 l5 -38 -16 42 c-10 26 -23 43 -33 42 -10 0 -11 -2 -3
-6 19 -7 16 -21 -8 -28 -12 -4 -18 -12 -15 -21 8 -21 -31 -18 -44 3 -11 17
-11 17 -6 0 3 -10 6 -21 6 -23 0 -2 8 -4 18 -5 10 0 12 -3 4 -6 -6 -2 -10 -9
-6 -14 3 -5 -2 -9 -10 -9 -9 0 -16 -5 -16 -11 0 -6 -9 -1 -19 12 -11 13 -17
26 -14 29 2 3 11 -4 19 -14 13 -19 14 -19 13 5 0 13 -4 33 -9 44 -7 17 -9 17
-9 3 -1 -10 -6 -18 -12 -18 -13 0 -39 -25 -39 -38 0 -5 12 -14 26 -21 26 -11
26 -12 8 -26 -18 -14 -18 -14 2 -15 12 0 26 -10 32 -23 6 -12 11 -16 11 -9 1
14 21 17 21 3 0 -5 -7 -16 -15 -24 -8 -8 -11 -18 -7 -23 4 -5 -3 0 -15 10 -13
11 -23 27 -23 38 0 10 -7 18 -15 18 -9 0 -12 -6 -9 -15 4 -9 0 -15 -10 -15
-25 0 -19 -20 7 -21 l22 0 -24 -10 c-15 -6 -28 -6 -36 1 -16 13 -28 0 -14 -17
9 -10 8 -13 -4 -13 -10 0 -14 -6 -11 -15 4 -11 0 -15 -16 -15 -16 0 -21 -4
-16 -16 5 -13 2 -15 -14 -11 -17 4 -19 3 -9 -9 9 -11 7 -14 -14 -14 -14 0 -28
6 -30 13 -4 7 -6 6 -6 -5 -1 -9 5 -18 11 -21 7 -2 10 -8 6 -12 -5 -5 -16 -1
-26 8 -21 19 -42 23 -24 5 18 -18 15 -25 -15 -33 -15 -3 -32 -12 -36 -18 -6
-8 -7 -6 -3 6 3 9 1 17 -4 17 -6 0 -10 -4 -10 -10 0 -5 -10 -9 -22 -9 -16 1
-18 3 -6 6 9 2 19 11 22 19 7 19 -1 18 -35 -7 -27 -19 -29 -19 -29 -2 0 10 10
23 22 28 29 13 35 35 10 35 -11 0 -23 8 -25 17 -4 17 -5 17 -6 1 0 -10 -8 -18
-16 -18 -8 0 -15 -4 -15 -10 0 -5 7 -10 16 -10 8 0 12 -5 9 -10 -10 -16 -39
-7 -52 15 -7 11 -12 14 -13 8 0 -7 -6 -13 -12 -13 -15 -1 -54 -50 -39 -50 5 0
16 7 25 15 19 19 26 19 26 0 0 -13 4 -14 20 -5 16 9 18 8 13 -6 -4 -12 -14
-14 -40 -9 -26 5 -33 3 -27 -6 5 -9 2 -10 -9 -6 -11 4 -14 2 -10 -9 3 -9 -2
-14 -16 -14 -24 0 -24 0 -12 34 11 27 -9 54 -30 41 -8 -5 -9 -1 -4 14 5 15 2
21 -9 21 -9 0 -16 -4 -16 -10 0 -5 -13 -10 -30 -10 -16 0 -30 -4 -30 -10 0 -5
7 -10 15 -10 13 0 14 -2 3 -14 -10 -10 -18 -11 -32 -4 -15 8 -22 7 -32 -7 -7
-9 -19 -15 -26 -12 -10 4 -10 6 0 6 17 1 15 21 -3 21 -8 0 -15 -4 -15 -10 0
-5 -7 -10 -15 -10 -8 0 -15 6 -15 14 0 17 -27 29 -35 16 -4 -6 -1 -10 4 -10 6
0 11 -3 11 -7 0 -15 -73 -8 -78 6 -3 10 0 12 12 8 10 -4 16 -1 16 8 0 8 9 15
20 15 11 0 20 5 20 10 0 15 19 12 37 -5 17 -17 35 -16 39 3 1 7 0 8 -3 2 -3
-7 -10 -7 -20 1 -8 7 -39 13 -69 14 -61 3 -69 7 -60 31 5 13 9 14 21 4 26 -21
29 -3 7 42 -19 40 -29 36 -23 -9 1 -8 -5 -10 -15 -6 -10 4 -15 2 -11 -4 3 -5
7 -26 9 -46 2 -37 12 -48 21 -24 2 6 8 8 13 4 5 -4 2 -12 -6 -17 -20 -13 -53
-13 -45 0 3 6 -6 15 -20 20 -32 12 -38 12 -31 1 3 -5 -8 -14 -24 -21 -31 -13
-37 -24 -20 -35 6 -3 10 -14 10 -23 -1 -16 -2 -15 -14 1 -12 15 -14 16 -20 2
-3 -8 -10 -15 -15 -15 -12 0 -8 27 7 42 18 18 15 23 -14 24 -17 1 -24 -2 -20
-11 5 -13 -12 -35 -27 -35 -5 0 -7 9 -4 20 4 15 0 20 -15 20 -12 0 -17 4 -12
12 5 8 0 9 -16 5 -22 -6 -55 14 -43 27 3 3 -6 10 -19 15 -14 5 -35 22 -47 37
-17 21 -32 28 -70 32 -46 4 -73 24 -55 41 4 3 9 0 11 -6 3 -7 17 -13 31 -13
25 1 25 2 8 12 -10 6 -33 12 -50 13 -17 2 -30 8 -28 14 1 6 -5 11 -14 11 -10
0 -14 5 -10 16 3 8 2 13 -3 9 -5 -3 -17 -2 -28 2 -15 6 -13 9 12 14 28 6 29 7
8 14 -13 4 -20 11 -17 16 3 5 -6 9 -20 9 -14 0 -26 4 -26 9 0 5 16 9 35 8 19
-1 35 -5 35 -9 0 -4 7 -8 15 -8 12 0 13 3 3 19 -6 10 -18 17 -25 14 -7 -3 -25
-2 -41 2 -27 7 -27 7 -4 16 25 9 30 29 7 29 -8 0 -15 6 -16 13 0 6 -4 3 -9 -8
-7 -18 -8 -19 -15 -2 -4 9 -2 24 5 31 9 12 7 19 -11 37 -17 17 -19 23 -8 30
27 17 -1 9 -36 -11 -35 -20 -46 -15 -23 8 10 10 10 15 -2 22 -9 6 -17 5 -21
-2 -10 -16 -17 3 -24 59 -4 37 -2 53 9 62 11 9 14 28 10 72 -2 38 0 58 6 54 6
-3 10 1 10 10 0 9 -4 13 -10 10 -5 -3 -10 1 -10 10 0 9 -7 23 -15 32 -13 13
-18 13 -32 2 -14 -12 -15 -11 -9 9 11 35 -11 26 -23 -9 -15 -43 -14 -52 4 -45
8 3 15 1 15 -4 0 -12 -40 -13 -58 -2 -9 6 -8 13 6 28 19 20 18 43 -2 56 -6 5
-1 8 12 8 24 0 27 7 12 30 -9 13 -13 11 -30 -9 -11 -13 -24 -20 -28 -16 -4 4
-1 10 6 12 6 3 12 18 12 35 0 16 6 36 14 44 19 18 30 18 22 -1 -3 -8 -1 -15 4
-15 4 0 11 14 15 30 7 31 20 39 28 18 4 -10 6 -10 6 -1 1 19 -21 27 -33 12
-14 -17 -56 -24 -56 -9 0 6 6 18 14 26 15 14 11 54 -5 54 -5 0 -9 9 -9 21 0
16 5 19 23 15 12 -3 16 -3 10 0 -15 7 -17 54 -3 54 6 0 10 7 10 15 0 8 -4 15
-10 15 -5 0 -10 5 -10 10 0 6 7 10 15 10 8 0 15 -6 15 -14 0 -15 24 -28 34
-19 3 4 6 23 6 44 0 20 5 39 11 41 6 2 13 21 14 41 2 21 -1 35 -6 32 -10 -7
-69 25 -69 36 0 4 -3 14 -6 22 -4 12 0 14 16 10 20 -5 19 -3 -7 24 l-28 29 -6
-30 c-5 -24 -7 -26 -8 -8 0 12 -7 25 -15 28 -8 3 -12 13 -9 24 3 10 0 21 -6
24 -6 4 -11 15 -11 25 0 22 -29 23 -47 1 -10 -13 -12 -10 -13 18 0 17 -4 32
-9 32 -5 0 -7 10 -3 22 4 17 2 20 -11 15 -14 -5 -17 0 -17 24 0 28 -2 31 -25
25 -28 -7 -35 8 -9 18 14 6 14 9 -6 26 -22 19 -22 20 -3 20 11 0 27 7 34 16
12 15 11 16 -7 10 -23 -7 -54 1 -54 14 0 5 8 11 18 13 9 3 2 5 -16 6 -30 1
-32 -1 -30 -25 2 -17 -2 -28 -12 -31 -13 -4 -13 -3 0 6 10 7 11 14 5 19 -6 4
-15 20 -20 37 -6 17 -19 31 -30 33 -15 2 -17 1 -6 -6 7 -6 11 -14 7 -20 -3 -6
0 -13 6 -15 8 -3 6 -6 -4 -6 -10 -1 -18 4 -18 9 0 6 -4 10 -10 10 -18 0 -11
-20 16 -45 22 -20 24 -25 9 -25 -11 0 -15 -5 -11 -16 3 -9 2 -12 -4 -9 -6 4
-13 -8 -17 -26 -5 -26 -8 -29 -17 -17 -6 8 -19 17 -28 21 -12 4 -16 15 -13 41
4 50 -11 45 -21 -6 -8 -43 -8 -43 -14 27 -4 59 -2 73 13 88 13 13 17 28 14 45
-3 16 2 39 11 54 9 15 14 30 11 32 -9 9 -49 -6 -49 -19 0 -7 -7 -18 -15 -25
-31 -26 -15 16 20 55 32 34 35 42 26 66 -10 28 1 50 14 29 3 -5 15 -10 26 -10
12 0 19 -7 19 -19 0 -18 15 -28 114 -79 22 -11 25 -17 15 -24 -10 -7 -8 -8 7
-3 14 3 35 -2 55 -15 19 -11 42 -23 52 -27 15 -4 16 -8 5 -14 -9 -6 -4 -9 15
-9 25 0 27 -3 27 -37 -2 -59 9 -102 46 -180 19 -39 34 -77 34 -83 0 -6 11 -21
23 -33 13 -12 32 -34 41 -49 18 -27 67 -58 93 -58 7 0 13 -6 13 -14 0 -14 21
-24 112 -51 91 -27 212 -13 303 34 39 20 71 39 73 44 2 4 9 7 14 7 12 0 136
92 183 137 34 32 85 97 85 110 0 4 9 19 20 33 11 14 20 35 20 47 0 12 7 29 16
38 12 11 14 25 10 50 -5 26 -4 34 6 31 7 -1 10 -1 6 1 -14 8 -9 22 14 43 19
18 21 24 10 41 -10 16 -10 20 4 26 15 6 15 7 -2 20 -10 7 -13 13 -8 13 22 0
32 46 22 93 l-9 45 -117 7 c-165 9 -181 12 -69 14 57 0 97 5 97 11 0 6 -6 10
-12 10 -7 0 -20 5 -28 10 -13 9 -13 11 0 20 13 9 13 11 0 20 -17 11 -61 14
-44 2 6 -4 13 -15 17 -24 5 -15 3 -16 -21 -6 -15 7 -32 15 -38 20 -6 4 -16 2
-22 -4 -9 -9 -12 -9 -12 0 0 7 -7 12 -15 12 -8 0 -15 -4 -15 -9 0 -4 -25 -9
-55 -10 -38 -1 -55 3 -55 12 0 7 -17 13 -42 14 -24 2 -76 5 -116 7 -52 4 -71
2 -66 -6 5 -8 1 -9 -12 -4 -21 9 -28 10 -64 8 -20 -2 -26 -8 -28 -28 -2 -21 2
-24 17 -19 11 3 22 2 25 -3 8 -13 -57 -22 -91 -13 -43 12 -210 -39 -228 -70
-4 -5 -15 -7 -25 -4 -10 3 -21 1 -25 -5 -3 -6 -11 -7 -17 -4 -6 4 -8 -1 -3
-15 4 -13 2 -21 -5 -21 -6 0 -8 -4 -5 -10 8 -12 -27 -13 -41 -1 -5 5 -25 12
-44 16 l-35 7 25 -18 c33 -24 70 -63 70 -75 0 -15 -16 -10 -35 11 -19 20 -111
70 -130 70 -7 0 -20 9 -29 19 -10 11 -24 17 -31 15 -7 -3 -21 12 -34 36 -24
47 -27 64 -6 36 8 -11 18 -16 22 -11 5 4 2 10 -4 12 -7 3 -13 13 -13 24 0 12
5 16 15 13 11 -5 15 1 15 22 0 27 -1 27 -15 8 -14 -19 -14 -19 -15 0 0 11 7
28 17 38 9 11 11 18 5 18 -7 0 -12 5 -12 11 0 6 7 9 15 5 8 -3 15 -1 15 4 0 6
-8 10 -17 10 -16 0 -16 2 -3 11 11 8 12 12 3 16 -18 7 -16 23 2 23 8 0 15 6
15 13 0 8 4 7 10 -3 8 -13 10 -12 10 3 0 9 5 17 10 17 6 0 15 10 20 23 l9 22
0 -22 c1 -24 16 -29 40 -14 8 5 11 16 8 25 -4 10 -1 19 9 23 12 4 12 8 4 13
-9 5 -6 10 9 15 11 3 21 13 21 21 0 19 -7 18 -32 -6 -36 -34 -52 -23 -19 13
17 17 26 34 21 35 -14 5 -40 -17 -37 -31 1 -7 -6 -11 -15 -9 -12 2 -16 -2 -12
-13 5 -11 0 -15 -19 -15 -14 0 -28 -6 -30 -12 -4 -10 -8 -9 -16 2 -10 13 -12
13 -20 1 -5 -8 -18 -16 -28 -17 -10 -2 -24 -12 -32 -23 -7 -12 -22 -21 -32
-21 -10 0 -21 -4 -24 -10 -3 -5 -11 -10 -17 -10 -6 0 -5 7 3 17 12 14 12 16
-1 8 -8 -5 -37 -9 -64 -10 l-49 -1 29 25 c16 13 28 28 27 32 -1 4 7 5 17 2 21
-6 28 11 9 22 -7 5 -2 16 13 32 16 19 19 27 10 30 -16 6 3 33 23 33 8 0 15 3
17 8 2 4 21 20 42 36 35 26 37 30 20 37 -17 7 -17 8 -1 8 10 1 29 8 42 17 27
17 50 10 41 -13 -5 -11 -1 -13 17 -7 12 3 27 11 33 16 19 14 55 18 75 7 15 -7
19 -6 19 6 0 8 10 26 22 40 22 25 48 33 48 15 0 -5 5 -10 11 -10 6 0 8 7 5 16
-7 19 19 60 44 67 14 3 17 1 13 -12 -4 -11 1 -9 16 6 11 12 21 27 21 33 0 5
10 10 23 10 12 0 29 5 37 11 13 9 12 10 -2 5 -10 -3 -20 -1 -23 4 -6 10 11 13
57 10 14 -1 29 3 33 9 3 6 -2 11 -12 11 -10 1 0 7 22 15 22 8 46 23 54 35 13
19 58 30 47 11 -4 -5 2 -8 11 -6 10 2 23 4 28 4 6 1 3 6 -5 11 -13 8 -12 10 3
10 11 0 15 5 11 11 -4 7 6 10 32 7 30 -2 39 1 38 12 -1 9 8 16 23 16 12 1 23
-1 23 -5 0 -4 11 -13 25 -19 15 -7 25 -8 25 -2 0 6 -6 10 -13 10 -14 0 -39 35
-30 43 3 4 13 -1 22 -10 15 -15 16 -15 19 1 3 15 6 16 25 3 39 -24 57 -28 50
-10 -5 13 -3 15 13 8 27 -12 124 -18 124 -8 0 5 -19 10 -42 12 -49 2 -65 10
-47 22 12 7 11 9 0 9 -11 0 -9 4 5 14 13 10 33 13 64 9 41 -5 43 -4 26 9 -12
10 -17 21 -13 32 7 18 34 17 30 -1 -1 -6 9 -8 22 -5 20 3 25 0 25 -17 0 -14 6
-21 20 -21 11 0 28 -9 37 -20 16 -18 53 -28 53 -14 0 12 -26 31 -53 38 -15 3
-27 11 -27 16 0 15 37 12 43 -2 4 -10 8 -9 16 2 8 12 15 10 39 -13 16 -16 39
-29 51 -30 15 -1 21 -8 21 -24 0 -21 1 -21 28 -7 36 19 63 18 56 -1 -4 -8 -12
-15 -20 -15 -8 0 -14 -10 -14 -25 0 -14 -4 -25 -10 -25 -5 0 -10 -5 -10 -11 0
-20 24 -3 31 22 4 13 7 18 8 12 1 -15 31 -18 31 -3 0 6 5 10 10 10 6 0 10 -6
10 -14 0 -22 29 -46 47 -39 12 5 15 2 11 -8 -7 -19 43 -24 73 -8 31 16 34 3 5
-22 -35 -30 -33 -35 13 -31 21 2 42 -1 45 -7 4 -7 -1 -11 -12 -11 -15 0 -18
-5 -14 -26 4 -23 2 -25 -17 -19 -16 5 -21 2 -21 -10 0 -12 7 -15 28 -13 21 2
28 9 30 31 2 17 9 27 20 27 10 0 13 -3 7 -8 -6 -4 -12 -21 -13 -38 -2 -24 3
-33 18 -37 12 -3 20 -14 20 -26 0 -24 3 -25 30 -9 10 7 23 8 27 4 4 -5 2 -11
-4 -13 -18 -6 -16 -23 2 -23 8 0 15 -8 16 -17 0 -16 1 -16 8 1 7 17 8 17 24 2
11 -11 25 -15 39 -12 13 3 17 3 10 0 -10 -5 -10 -9 -1 -20 9 -10 15 -11 25 -3
9 7 19 7 32 0 10 -5 30 -8 43 -5 20 4 21 3 5 -4 -14 -6 -16 -11 -7 -16 6 -4
18 -2 26 4 8 6 19 9 25 5 5 -3 16 -3 23 2 19 13 117 10 117 -4 0 -6 -6 -14
-12 -16 -7 -3 4 -6 25 -6 34 -1 38 1 32 19 -4 11 -2 20 4 20 6 0 11 -6 11 -14
0 -9 7 -12 18 -9 12 3 22 -4 31 -20 7 -13 19 -24 27 -24 19 0 18 14 -3 26 -10
5 -14 13 -10 17 4 4 18 -3 32 -16 14 -13 28 -20 32 -16 4 4 3 10 -2 14 -13 9
-16 72 -4 72 5 0 9 -7 9 -15 0 -8 5 -15 10 -15 6 0 10 -7 10 -15 0 -8 5 -15
11 -15 12 0 3 37 -15 59 -9 12 -7 12 14 1 14 -7 28 -17 31 -23 4 -6 15 -6 25
-2 18 8 18 8 2 12 -10 3 -18 9 -18 14 0 6 5 7 10 4 6 -3 10 3 10 14 0 27 14
27 33 -1 16 -23 16 -23 12 10 -3 28 -1 32 21 32 15 0 24 -6 24 -15 0 -8 6 -14
12 -13 7 2 14 -7 16 -19 2 -13 8 -23 13 -23 5 0 9 -9 9 -20 0 -11 9 -29 21
-41 20 -20 20 -21 1 -15 -19 6 -20 3 -16 -49 2 -35 0 -55 -7 -55 -6 0 -9 -6
-6 -14 3 -8 1 -17 -6 -19 -9 -3 -8 -8 2 -20 12 -15 11 -17 -8 -17 -23 0 -29
-16 -8 -23 9 -3 9 -7 0 -18 -14 -18 -18 -49 -8 -72 4 -10 5 -20 2 -23 -3 -4
-2 -16 3 -29 5 -14 5 -26 -3 -34 -8 -8 -8 -11 1 -11 14 0 16 -27 3 -32 -5 -1
-11 -27 -14 -55 -4 -43 -2 -53 11 -53 8 0 13 -2 10 -5 -3 -3 -25 -1 -49 5 -24
6 -71 17 -104 24 -59 13 -59 14 -18 15 30 1 43 6 46 19 4 13 5 12 6 -5 1 -15
11 -25 36 -33 19 -6 41 -9 48 -7 7 4 6 6 -4 6 -20 1 -75 29 -71 36 6 14 1 25
-13 25 -8 0 -15 -7 -15 -16 0 -13 -3 -14 -14 -5 -11 9 -15 9 -18 -1 -6 -17
-154 -22 -161 -4 -4 9 4 11 24 8 18 -3 37 2 47 11 9 9 35 17 57 19 34 2 41 7
43 27 4 23 3 23 -13 7 -16 -16 -18 -16 -30 0 -9 13 -14 14 -19 5 -6 -9 -11 -9
-22 0 -8 7 -29 9 -49 6 -19 -3 -35 -2 -35 3 0 11 40 25 60 21 9 -2 5 6 -9 18
-13 12 -30 21 -38 21 -11 0 -11 4 -2 23 l12 22 -20 -20 c-20 -19 -20 -20 -2
-29 32 -15 21 -33 -28 -50 -61 -21 -70 -20 -42 4 13 10 19 19 12 20 -6 0 -13
-5 -15 -11 -3 -9 -10 -9 -27 0 -22 12 -38 11 -121 -5 -25 -5 -25 -5 -5 11 19
16 18 16 -25 12 -25 -3 -53 -8 -62 -12 -11 -4 -18 -3 -18 4 0 6 -8 8 -17 5
-15 -5 -15 -3 1 10 17 14 18 16 3 16 -11 0 -15 6 -12 18 3 9 -1 5 -8 -10 -7
-15 -34 -48 -60 -73 -26 -26 -47 -51 -47 -56 0 -8 95 -15 148 -10 13 1 29 -2
36 -8 11 -10 49 -9 147 4 28 4 49 2 53 -4 4 -6 -13 -12 -41 -15 -27 -3 -78
-10 -116 -16 -94 -14 -122 -13 -109 3 8 9 -17 11 -121 9 -73 -1 -143 -5 -157
-8 -21 -5 -23 -7 -8 -15 10 -5 15 -16 12 -24 -4 -8 -1 -15 6 -15 6 0 9 -4 5
-9 -3 -5 -2 -12 3 -15 4 -2 6 -20 4 -39 -3 -29 -7 -34 -24 -29 l-20 5 20 -39
c42 -82 52 -110 56 -152 2 -23 6 -45 10 -49 3 -3 6 -14 6 -24 0 -10 7 -22 16
-27 16 -9 29 -29 63 -99 23 -47 27 -73 10 -73 -19 0 -38 -33 -39 -65 0 -17 -4
-45 -9 -63 -6 -20 -6 -32 0 -32 5 0 9 -9 9 -19 0 -10 6 -21 14 -24 7 -3 22
-23 34 -45 17 -32 18 -41 7 -46 -8 -3 -16 0 -19 7 -3 8 -9 6 -16 -6 -14 -23
-55 -40 -98 -42 -18 -1 -38 -10 -46 -20 -9 -13 -19 -16 -32 -11 -18 8 -18 8 1
16 18 8 17 9 -8 9 -15 1 -36 7 -48 14 -17 10 -22 9 -30 -5 -7 -12 -21 -16 -49
-15 -22 1 -40 4 -40 7 0 3 -14 11 -31 19 -18 8 -34 22 -36 32 -4 12 -14 19
-30 19 -13 0 -22 4 -19 9 7 10 -22 24 -34 16 -4 -2 -5 -16 -2 -30 2 -15 0 -25
-7 -25 -7 0 -10 -4 -7 -9 3 -5 -8 -8 -24 -7 -31 1 -47 21 -31 40 10 12 11 14
12 49 0 20 1 20 8 3 6 -17 9 -17 23 -3 8 9 31 19 51 22 52 10 64 51 46 151
-12 69 -29 100 -29 53 0 -11 -4 -18 -9 -15 -14 9 -41 -5 -41 -20 0 -8 -7 -17
-15 -20 -8 -4 -15 -14 -15 -23 -1 -14 -2 -14 -13 -1 -7 8 -19 16 -27 18 -13 2
-13 1 0 -10 22 -19 19 -53 -5 -53 -11 0 -21 -6 -21 -12 -1 -7 -2 -17 -3 -22 0
-5 -11 -11 -23 -13 -15 -2 -24 -11 -26 -26 -2 -13 -17 -36 -33 -51 -16 -16
-29 -33 -29 -38 0 -6 -9 -13 -20 -16 -11 -3 -20 -11 -20 -19 0 -11 2 -11 9 1
5 7 11 9 14 4 4 -6 -5 -20 -18 -33 -13 -13 -22 -27 -19 -31 3 -5 0 -9 -6 -9
-7 0 -9 -7 -6 -15 4 -10 -2 -19 -17 -25 -22 -9 -22 -9 -1 -9 17 -1 20 -6 16
-26 -3 -20 0 -25 17 -25 12 0 21 6 21 15 0 8 5 15 11 15 6 0 18 7 26 16 13 13
17 13 24 2 7 -10 9 -10 9 0 0 25 43 11 73 -23 24 -28 33 -33 44 -24 11 9 12 9
8 -3 -5 -12 4 -17 37 -23 24 -4 50 -7 58 -7 10 1 11 0 3 -4 -7 -3 -13 -22 -12
-42 0 -20 3 -31 6 -25 2 7 16 13 29 13 15 0 24 6 24 15 0 8 -4 15 -9 15 -18 0
-4 35 15 38 15 2 16 1 5 -7 -11 -7 -9 -10 9 -13 13 -1 28 -12 34 -23 6 -11 12
-22 14 -25 2 -2 7 2 13 10 8 13 13 11 30 -9 12 -15 23 -21 27 -15 4 6 15 13
24 17 13 5 16 0 15 -23 -1 -16 2 -29 8 -27 5 1 10 10 10 19 1 10 5 21 9 25 4
5 6 0 4 -9 -1 -9 2 -17 7 -18 6 -1 22 -11 37 -21 34 -24 36 -24 30 6 -2 14 0
25 5 25 16 0 33 -24 33 -47 0 -35 16 -27 33 16 17 41 45 60 59 39 5 -9 10 -10
16 -2 11 16 41 24 47 14 3 -5 1 -19 -6 -31 -8 -15 -8 -19 0 -15 7 5 11 -3 12
-21 0 -25 1 -26 9 -8 12 28 12 47 0 40 -5 -3 -10 -1 -10 4 0 6 5 11 10 11 6 0
10 11 10 25 0 14 3 25 8 25 15 -1 39 -26 35 -37 -3 -7 2 -13 10 -13 7 0 19
-12 26 -27 8 -17 15 -23 19 -16 5 7 13 9 21 4 7 -5 10 -14 7 -20 -5 -7 -2 -10
6 -9 7 2 13 -5 13 -15 0 -10 5 -21 10 -25 20 -14 35 -51 24 -58 -8 -4 -7 -10
2 -16 10 -6 10 -11 3 -14 -6 -3 -20 -11 -30 -19 -18 -14 -17 -14 9 -15 19 0
26 4 21 12 -4 6 -3 8 4 5 5 -4 8 -16 5 -27 -3 -11 0 -20 6 -20 6 0 11 6 11 13
0 7 9 19 20 27 16 11 19 21 14 44 -4 19 -2 32 7 38 9 6 5 7 -12 3 -19 -5 -28
-2 -33 11 -8 22 1 31 16 16 17 -17 28 -15 22 3 -4 8 -17 15 -30 15 -13 0 -24
5 -24 10 0 14 22 12 45 -3 17 -12 26 -11 60 4 l40 19 -47 -7 c-33 -4 -48 -2
-48 5 0 14 45 27 59 17 6 -3 12 -1 12 4 3 26 4 30 12 37 11 12 8 25 -5 22 -18
-3 -58 12 -58 22 0 5 6 11 13 14 6 4 2 4 -10 2 -13 -2 -23 0 -23 5 0 5 -7 9
-15 9 -21 0 -19 37 2 49 10 5 14 13 10 17 -5 5 -12 2 -17 -6 -10 -16 -14 -8
-11 22 1 10 -3 18 -9 18 -6 0 -8 5 -5 10 4 6 10 8 14 5 5 -2 6 7 3 20 -4 25
-42 37 -42 13 0 -20 -13 1 -15 25 -1 15 -8 22 -22 22 -11 1 -28 7 -37 14 -12
10 -16 11 -16 1 0 -7 8 -19 18 -26 14 -10 15 -15 5 -25 -21 -22 -38 10 -42 81
-1 13 -2 13 -11 0 -8 -13 -10 -12 -10 2 0 10 -9 23 -20 30 -11 7 -20 21 -20
30 0 10 -5 18 -11 18 -6 0 -9 15 -8 34 2 19 -2 40 -9 48 -9 11 -9 17 1 27 9
11 9 14 0 18 -7 3 -13 20 -13 39 l0 35 45 -32 c25 -18 45 -35 45 -38 0 -4 18
-17 39 -31 22 -13 38 -27 35 -31 -2 -4 20 -14 49 -24 28 -9 57 -21 62 -25 6
-5 27 -11 48 -15 20 -4 40 -11 43 -16 3 -5 47 -9 99 -9 52 0 97 -4 100 -10 3
-6 -1 -7 -9 -4 -9 3 -16 2 -16 -4 0 -6 6 -12 13 -15 11 -4 -4 -20 -57 -60 -8
-6 -7 -10 2 -14 6 -2 12 -16 12 -30 0 -19 -4 -24 -15 -19 -13 5 -15 0 -9 -32
4 -20 10 -39 15 -42 4 -3 13 -18 18 -33 9 -23 15 -27 34 -22 17 5 19 4 7 -5
-13 -9 -13 -12 4 -25 11 -8 17 -17 14 -21 -10 -9 -42 16 -66 52 -12 19 -29 34
-36 34 -8 0 -17 6 -19 13 -4 8 -6 8 -6 -2 -1 -8 6 -23 16 -33 14 -16 15 -18 0
-18 -9 0 -19 -5 -22 -10 -8 -13 23 -45 33 -35 4 4 1 10 -5 12 -18 6 -16 23 2
23 8 0 15 -7 15 -16 0 -10 6 -14 15 -10 9 3 15 0 15 -7 0 -7 16 -19 35 -27 19
-8 35 -18 35 -24 0 -5 -3 -6 -7 -3 -10 10 -33 -13 -33 -33 0 -10 -5 -20 -11
-22 -9 -3 -9 -18 1 -58 15 -67 29 -96 30 -63 0 16 4 21 15 17 8 -4 15 -2 15 4
0 5 -7 12 -15 16 -19 7 -19 30 -1 45 11 9 15 9 18 0 6 -19 28 -1 28 22 0 16 5
19 23 14 19 -5 19 -4 5 5 -9 6 -15 17 -12 25 4 9 0 15 -7 15 -10 1 -9 4 3 10
13 8 16 22 13 64 -1 30 -5 59 -9 64 -3 6 1 18 10 27 13 12 14 19 5 28 -14 14
-14 27 -1 27 6 0 10 -6 10 -14 0 -8 7 -16 15 -20 8 -3 12 -12 9 -21 -4 -9 -1
-15 9 -15 12 0 14 13 10 75 -4 59 -1 81 11 100 9 13 16 41 16 61 0 29 3 35 16
30 9 -3 18 -6 20 -6 2 0 4 -37 4 -82 0 -46 5 -90 10 -98 5 -8 10 -11 10 -6 0
5 6 3 13 -3 20 -16 27 -4 27 45 0 24 5 46 10 49 6 4 10 12 9 18 -5 40 17 53
24 15 l4 -23 2 23 c0 12 5 22 10 22 5 0 12 12 15 26 4 14 12 24 19 21 6 -2 20
4 30 14 19 17 20 42 4 104 -3 11 -6 27 -6 35 -1 8 -8 2 -17 -15 -20 -39 -15
-81 10 -77 16 3 16 1 -3 -20 -19 -19 -23 -20 -31 -8 -5 8 -10 20 -10 27 0 7
-8 16 -17 22 -10 5 -14 13 -10 17 5 5 12 2 17 -6 5 -8 12 -11 15 -8 9 9 9 75
0 116 -7 31 -24 44 -27 20 0 -7 -2 -17 -3 -23 -2 -5 -3 -14 -4 -20 -1 -5 -6
-3 -11 5 -7 12 -10 8 -10 -15 -1 -24 -2 -27 -10 -13 -11 19 7 71 21 62 5 -3 9
4 9 15 0 11 9 35 20 53 l20 33 0 -37 c0 -21 5 -38 11 -38 6 0 8 9 3 22 -17 54
2 188 27 188 5 0 9 -4 9 -10 0 -5 -4 -10 -10 -10 -15 0 -12 -34 5 -66 8 -16
15 -46 15 -66 0 -20 5 -40 10 -43 6 -4 8 -12 4 -18 -3 -7 3 -1 14 12 12 15 17
33 14 49 -3 16 -1 23 6 18 6 -3 13 -2 17 4 5 9 -15 15 -37 11 -5 0 -8 5 -8 12
0 9 11 12 36 9 34 -4 35 -3 25 16 -15 28 -14 32 7 32 17 0 52 28 52 42 0 3
-10 9 -22 13 l-23 8 23 4 c20 4 22 10 22 74 0 48 -4 69 -12 69 -9 0 -14 17
-15 50 0 28 3 50 8 50 14 0 10 40 -5 56 -13 12 -15 12 -15 -3 1 -50 -14 -289
-17 -292 -2 -2 -4 47 -5 110 0 63 -4 123 -9 134 -8 16 -9 13 -8 -15 1 -19 1
-79 0 -132 -2 -95 -3 -98 -24 -97 -17 1 -19 2 -5 6 22 6 22 23 0 24 -11 0 -13
3 -5 6 8 3 12 24 11 61 -1 32 -4 46 -6 32 -3 -14 -8 -27 -12 -30 -3 -3 -12
-17 -18 -32 -9 -21 -9 -28 0 -31 7 -3 -1 -8 -16 -12 -18 -5 -33 -3 -40 4 -8 8
-7 11 6 11 15 0 14 4 -3 46 -21 48 -26 69 -10 44 8 -13 13 54 12 158 0 19 3
30 9 26 7 -4 9 27 7 89 -3 81 -1 94 12 89 12 -5 13 -3 4 9 -6 8 -15 25 -19 39
-7 24 -7 24 8 5 21 -27 32 -13 14 17 -18 27 -34 82 -18 58 5 -8 13 -11 17 -7
4 3 2 13 -5 20 -6 8 -9 25 -7 38 2 16 -4 31 -22 47 -14 12 -21 22 -15 22 5 0
20 -9 33 -20 13 -11 24 -19 26 -17 1 1 4 25 7 53 2 28 7 56 10 61 4 6 3 23 -3
37 -5 14 -5 28 -1 31 10 5 7 56 -4 118 -7 32 -5 40 14 53 11 8 21 20 21 27 0
8 -3 8 -12 -1 -16 -16 -28 -15 -28 3 0 9 9 15 22 15 17 0 19 3 10 12 -17 17
-15 26 6 31 14 3 13 6 -7 14 -21 9 -22 11 -7 25 9 9 16 20 16 24 0 11 -34 33
-52 34 -10 0 -18 5 -18 11 0 7 10 9 25 5 22 -6 25 -3 25 21 0 38 -22 93 -37
93 -7 0 -13 5 -13 10 0 6 11 8 25 4 22 -5 25 -3 25 19 0 14 -4 29 -10 32 -6 3
-10 22 -10 41 0 19 -4 34 -9 34 -5 0 -17 8 -27 18 -17 16 -106 17 -1553 20
l-1536 2 -18 -37z m2288 -93 c3 -5 1 -10 -4 -10 -6 0 -11 5 -11 10 0 6 2 10 4
10 3 0 8 -4 11 -10z m855 0 c0 -5 -2 -10 -4 -10 -3 0 -8 5 -11 10 -3 6 -1 10
4 10 6 0 11 -4 11 -10z m-705 -28 c-3 -3 -11 0 -18 7 -9 10 -8 11 6 5 10 -3
15 -9 12 -12z m-65 -2 c0 -5 -7 -7 -15 -4 -8 4 -15 8 -15 10 0 2 7 4 15 4 8 0
15 -4 15 -10z m-800 -10 c0 -5 -7 -10 -15 -10 -8 0 -15 5 -15 10 0 6 7 10 15
10 8 0 15 -4 15 -10z m35 0 c3 -5 -1 -10 -10 -10 -9 0 -13 5 -10 10 3 6 8 10
10 10 2 0 7 -4 10 -10z m870 -10 c3 -5 1 -10 -4 -10 -6 0 -11 5 -11 10 0 6 2
10 4 10 3 0 8 -4 11 -10z m-170 -11 c11 -16 1 -19 -13 -3 -7 8 -8 14 -3 14 5
0 13 -5 16 -11z m95 -9 c6 -11 9 -20 8 -20 -2 0 -11 9 -21 20 -9 11 -13 20 -7
20 5 0 14 -9 20 -20z m-690 1 c0 -6 -4 -13 -10 -16 -5 -3 -10 1 -10 9 0 9 5
16 10 16 6 0 10 -4 10 -9z m734 -37 c9 -24 7 -27 -9 -10 -17 17 -19 26 -6 26
5 0 12 -7 15 -16z m-1119 -4 c8 -13 -5 -13 -25 0 -13 8 -13 10 2 10 9 0 20 -4
23 -10z m1820 -10 c3 -5 1 -10 -4 -10 -6 0 -11 5 -11 10 0 6 2 10 4 10 3 0 8
-4 11 -10z m-620 -70 c3 -4 -6 -3 -19 3 -13 6 -29 20 -36 31 -11 17 -9 16 19
-3 17 -12 33 -26 36 -31z m-1455 20 c0 -5 -7 -10 -15 -10 -8 0 -15 5 -15 10 0
6 7 10 15 10 8 0 15 -4 15 -10z m837 -26 c-3 -3 -12 -4 -19 -1 -8 3 -5 6 6 6
11 1 17 -2 13 -5z m58 -34 c-27 -12 -43 -12 -25 0 8 5 22 9 30 9 10 0 8 -3 -5
-9z m860 -130 c3 -5 1 -10 -4 -10 -6 0 -11 5 -11 10 0 6 2 10 4 10 3 0 8 -4
11 -10z m-745 -26 c0 -8 -5 -12 -10 -9 -6 4 -8 11 -5 16 9 14 15 11 15 -7z
m710 -84 c0 -5 -7 -10 -15 -10 -8 0 -15 5 -15 10 0 6 7 10 15 10 8 0 15 -4 15
-10z m-2260 -15 c0 -2 -9 -9 -19 -14 -14 -8 -20 -7 -24 2 -3 8 4 14 19 15 13
1 24 0 24 -3z m-216 -103 c3 -5 -1 -9 -9 -9 -8 0 -12 4 -9 9 3 4 7 8 9 8 2 0
6 -4 9 -8z m186 -187 c0 -8 -4 -15 -10 -15 -5 0 -7 7 -4 15 4 8 8 15 10 15 2
0 4 -7 4 -15z m2585 -45 c3 -5 1 -10 -4 -10 -6 0 -11 5 -11 10 0 6 2 10 4 10
3 0 8 -4 11 -10z m-2776 -113 c-2 -1 -13 -9 -24 -17 -19 -14 -19 -14 -6 3 7 9
18 17 24 17 6 0 8 -1 6 -3z m1931 -21 c0 -2 -7 -6 -15 -10 -8 -3 -15 -1 -15 4
0 6 7 10 15 10 8 0 15 -2 15 -4z m240 -3 c0 -10 -52 -34 -59 -28 -6 7 31 34
47 35 6 0 12 -3 12 -7z m-1211 -20 c0 -13 -2 -14 -6 -4 -4 10 -7 11 -13 1 -4
-7 -13 -9 -19 -6 -16 10 -4 26 20 26 12 0 19 -7 18 -17z m31 -3 c0 -5 -2 -10
-4 -10 -3 0 -8 5 -11 10 -3 6 -1 10 4 10 6 0 11 -4 11 -10z m1105 0 c-3 -5
-16 -15 -28 -21 l-22 -12 20 21 c21 22 41 30 30 12z m-70 -20 c4 -6 -6 -10
-22 -10 -22 0 -25 2 -13 10 19 12 27 12 35 0z m343 4 c21 -6 21 -7 5 -20 -10
-7 -29 -13 -43 -14 -18 0 -21 3 -11 9 8 5 20 7 28 4 7 -3 13 0 13 5 0 6 -8 13
-17 15 -10 3 -13 5 -8 6 6 0 20 -2 33 -5z m-1180 -11 c-10 -2 -26 -2 -35 0
-10 3 -2 5 17 5 19 0 27 -2 18 -5z m-82 -30 c49 5 57 3 61 -13 3 -10 12 -21
22 -23 9 -3 -6 -3 -34 0 -27 3 -66 11 -85 18 -19 7 -57 16 -85 21 l-50 8 40 6
c27 4 45 1 57 -9 13 -10 33 -12 74 -8z m-1001 -43 c3 -5 1 -10 -4 -10 -6 0
-11 5 -11 10 0 6 2 10 4 10 3 0 8 -4 11 -10z m2273 -17 c2 -7 -4 -13 -13 -13
-10 0 -15 -6 -12 -13 2 -6 -1 -17 -8 -24 -10 -9 -18 -6 -36 13 -12 13 -17 24
-11 24 6 0 15 -8 21 -17 5 -10 12 -15 16 -12 3 4 -1 13 -9 22 -8 8 -12 18 -8
22 4 5 3 6 -3 3 -5 -3 -19 -2 -30 3 -14 6 -3 8 34 6 33 -1 56 -7 59 -14z
m-461 1 c-3 -3 -12 -4 -19 -1 -8 3 -5 6 6 6 11 1 17 -2 13 -5z m503 -23 c0
-24 -3 -28 -20 -24 -21 6 -24 12 -14 37 11 28 34 18 34 -13z m61 -3 c1 -17 2
-19 6 -5 5 18 17 20 48 7 14 -6 16 -9 4 -9 -8 -1 -25 -10 -37 -21 -11 -11 -28
-17 -36 -14 -9 3 -16 2 -16 -4 0 -5 11 -13 24 -16 13 -3 26 -13 30 -21 5 -13
2 -14 -15 -5 -11 6 -29 8 -41 4 -18 -5 -20 -3 -15 17 4 13 7 39 7 57 0 25 4
32 20 32 14 0 20 -7 21 -22z m-1906 -28 c3 -5 1 -10 -4 -10 -6 0 -11 5 -11 10
0 6 2 10 4 10 3 0 8 -4 11 -10z m804 -35 c13 -20 21 -38 17 -42 -3 -3 -6 -1
-6 5 0 6 -14 27 -31 47 -17 19 -25 33 -18 30 8 -3 25 -21 38 -40z m1031 0 c0
-11 -7 -14 -24 -11 -14 2 -26 0 -29 -7 -2 -6 -11 -8 -23 -3 -17 7 -15 10 16
21 47 18 60 18 60 0z m-1653 -57 c-3 -7 -5 -2 -5 12 0 14 2 19 5 13 2 -7 2
-19 0 -25z m123 21 c0 -5 -5 -7 -11 -4 -5 4 -21 4 -34 1 -18 -5 -22 -11 -17
-28 3 -13 15 -31 26 -42 23 -20 25 -20 -41 -1 -27 8 -29 20 -5 35 13 8 14 13
4 17 -10 4 -9 8 5 19 21 16 73 19 73 3z m150 3 c0 -4 -19 -9 -42 -10 -33 -1
-38 1 -23 8 26 11 65 12 65 2z m61 -1 c18 11 86 12 93 0 4 -5 -11 -7 -33 -4
-21 3 -47 1 -56 -5 -20 -11 -55 -5 -55 10 0 5 7 5 18 -1 11 -6 24 -6 33 0z
m1039 -11 c0 -11 -4 -20 -10 -20 -5 0 -9 5 -7 10 1 6 -25 13 -62 15 -90 6 -89
15 2 15 70 0 77 -2 77 -20z m150 10 c-8 -5 -19 -10 -25 -10 -5 0 -3 5 5 10 8
5 20 10 25 10 6 0 3 -5 -5 -10z m276 -22 l19 -21 -27 18 c-29 18 -34 25 -20
25 5 0 17 -10 28 -22z m-2936 2 c0 -5 -5 -10 -11 -10 -5 0 -7 5 -4 10 3 6 8
10 11 10 2 0 4 -4 4 -10z m1329 -4 c9 -11 9 -16 -1 -22 -7 -4 -10 -4 -6 1 4 4
3 14 -3 22 -6 7 -9 13 -6 13 2 0 10 -6 16 -14z m296 -11 c28 -27 33 -70 10
-79 -8 -3 -15 -1 -15 4 0 6 5 10 10 10 21 0 9 39 -21 64 -17 14 -25 26 -19 26
6 0 22 -11 35 -25z m994 13 c-2 -2 -17 -14 -34 -28 l-30 -25 24 28 c14 15 29
27 34 27 6 0 8 -1 6 -2z m-1332 -28 c-3 -11 -1 -23 4 -26 5 -3 9 -11 8 -17 0
-9 -2 -9 -6 1 -6 15 -34 16 -30 1 1 -6 -3 -13 -10 -16 -7 -3 -9 3 -6 17 3 12
12 24 19 27 7 2 10 11 7 19 -3 8 0 14 7 14 7 0 10 -8 7 -20z m173 5 c0 -8 -2
-15 -4 -15 -2 0 -6 7 -10 15 -3 8 -1 15 4 15 6 0 10 -7 10 -15z m-517 -9 c4
-10 1 -13 -9 -9 -15 6 -19 23 -5 23 5 0 11 -7 14 -14z m218 -41 c5 4 9 -1 9
-9 0 -20 -29 -21 -36 -1 -4 8 -3 27 2 43 l8 27 4 -33 c2 -18 8 -30 13 -27z
m649 25 c0 -16 -4 -30 -8 -30 -5 0 -7 14 -4 30 2 17 6 30 8 30 2 0 4 -13 4
-30z m691 3 c-12 -20 -14 -14 -5 12 4 9 9 14 11 11 3 -2 0 -13 -6 -23z m-134
-30 c-3 -10 -5 -2 -5 17 0 19 2 27 5 18 2 -10 2 -26 0 -35z m623 -9 c0 -7 -5
-16 -12 -20 -8 -5 -9 -2 -4 11 4 10 0 29 -9 44 l-16 26 20 -24 c12 -13 21 -29
21 -37z m-136 -5 c9 -14 21 -19 31 -15 9 3 28 3 43 -1 24 -6 25 -7 7 -14 -30
-11 -75 -11 -75 1 0 24 -50 60 -82 61 -27 0 -29 2 -13 8 24 10 67 -10 89 -40z
m66 47 c0 -3 -4 -8 -10 -11 -5 -3 -10 -1 -10 4 0 6 5 11 10 11 6 0 10 -2 10
-4z m-2825 -26 c3 -5 1 -10 -4 -10 -6 0 -11 5 -11 10 0 6 2 10 4 10 3 0 8 -4
11 -10z m1245 6 c0 -3 -4 -8 -10 -11 -5 -3 -10 -1 -10 4 0 6 5 11 10 11 6 0
10 -2 10 -4z m134 -4 c3 -5 -8 -9 -24 -9 -16 0 -27 4 -24 9 3 4 14 8 24 8 10
0 21 -4 24 -8z m616 -2 c0 -5 -4 -10 -10 -10 -5 0 -10 5 -10 10 0 6 5 10 10
10 6 0 10 -4 10 -10z m626 -4 c-16 -7 -35 -24 -43 -37 -8 -14 -12 -16 -9 -6 3
10 6 23 6 28 0 11 37 28 60 28 8 -1 2 -6 -14 -13z m-1327 -48 c-1 -55 -5 -50
-11 15 -2 20 0 37 4 37 4 0 7 -24 7 -52z m1111 32 c0 -5 -4 -10 -10 -10 -5 0
-10 5 -10 10 0 6 5 10 10 10 6 0 10 -4 10 -10z m-960 -29 c6 -16 10 -38 7 -48
-3 -13 -5 -11 -6 7 0 14 -8 36 -17 48 -8 12 -11 22 -6 22 5 0 15 -13 22 -29z
m-1230 6 c0 -7 -5 -18 -12 -25 -8 -8 -7 -25 7 -67 9 -31 14 -59 11 -62 -3 -4
-6 -1 -6 5 0 7 -4 12 -10 12 -5 0 -10 -9 -10 -20 0 -11 -4 -20 -9 -20 -13 0
-13 130 1 161 13 30 28 38 28 16z m2194 -13 c4 -10 1 -14 -6 -12 -15 5 -23 28
-10 28 5 0 13 -7 16 -16z m-2447 0 c-3 -3 -12 -4 -19 -1 -8 3 -5 6 6 6 11 1
17 -2 13 -5z m1620 -46 c-3 -7 -5 -2 -5 12 0 14 2 19 5 13 2 -7 2 -19 0 -25z
m754 22 c10 -6 19 -16 19 -23 0 -9 -2 -9 -8 0 -4 7 -19 16 -32 22 -14 5 -19
10 -12 10 7 1 22 -4 33 -9z m-1211 -11 c0 -7 -22 -8 -67 -4 -91 10 -92 15 -5
15 45 0 72 -4 72 -11z m100 -9 c0 -11 -4 -20 -10 -20 -5 0 -10 4 -10 8 0 12
-43 9 -52 -3 -5 -6 -8 -6 -8 2 0 16 29 32 58 33 15 0 22 -6 22 -20z m1068 -32
c7 1 12 -3 12 -9 0 -6 -8 -9 -17 -7 -13 2 -19 14 -20 38 -1 35 -1 35 6 5 4
-16 12 -29 19 -27z m22 28 c0 -3 -4 -8 -10 -11 -5 -3 -10 -1 -10 4 0 6 5 11
10 11 6 0 10 -2 10 -4z m-1513 -28 c-3 -8 -6 -5 -6 6 -1 11 2 17 5 13 3 -3 4
-12 1 -19z m490 0 c-3 -8 -6 -5 -6 6 -1 11 2 17 5 13 3 -3 4 -12 1 -19z m266
-11 c10 -4 16 -11 12 -17 -8 -13 -45 11 -45 30 0 9 3 11 8 4 4 -6 15 -13 25
-17z m-138 3 c-3 -5 -23 -9 -43 -9 l-37 2 35 7 c52 11 52 11 45 0z m-288 -47
c-3 -10 -5 -4 -5 12 0 17 2 24 5 18 2 -7 2 -21 0 -30z m70 -5 c-3 -7 -5 -2 -5
12 0 14 2 19 5 13 2 -7 2 -19 0 -25z m1350 0 c-3 -8 -6 -5 -6 6 -1 11 2 17 5
13 3 -3 4 -12 1 -19z m-199 -24 c-3 -14 -5 -12 -10 9 -3 19 -2 25 4 19 6 -6 8
-18 6 -28z m-2218 -30 c12 -31 13 -104 1 -122 -6 -10 -10 -8 -14 8 -5 18 -9
20 -24 12 -12 -7 -18 -22 -18 -48 0 -32 -4 -40 -26 -48 -21 -7 -31 -4 -52 14
-25 22 -26 25 -11 41 10 11 12 19 5 24 -14 8 -14 45 -1 45 6 0 10 8 10 18 0
19 18 42 32 42 4 0 8 -8 8 -17 0 -15 2 -16 10 -3 5 8 10 12 10 8 0 -12 40 30
40 42 0 20 21 9 30 -16z m39 -28 c1 -6 -5 -1 -13 9 -8 11 -12 24 -8 29 5 9 20
-17 21 -38z m2401 34 c0 -5 -5 -10 -11 -10 -5 0 -7 5 -4 10 3 6 8 10 11 10 2
0 4 -4 4 -10z m325 -20 c3 -5 1 -10 -4 -10 -6 0 -11 5 -11 10 0 6 2 10 4 10 3
0 8 -4 11 -10z m-1965 -20 c0 -5 -5 -10 -11 -10 -5 0 -7 5 -4 10 3 6 8 10 11
10 2 0 4 -4 4 -10z m370 -21 c0 -5 -4 -9 -10 -9 -5 0 -10 7 -10 16 0 8 5 12
10 9 6 -3 10 -10 10 -16z m-1096 -87 c17 -9 18 -11 4 -11 -15 -1 -17 -11 -14
-76 2 -44 -1 -78 -7 -82 -6 -3 -7 -1 -3 5 3 6 2 13 -4 17 -5 3 -10 35 -10 71
0 36 -5 74 -11 86 -7 12 -8 34 -3 57 l8 36 9 -47 c7 -31 17 -50 31 -56z m776
89 c0 -5 -6 -14 -14 -20 -12 -10 -13 -8 -9 8 5 21 23 30 23 12z m1367 -53 c-2
-13 -4 -3 -4 22 0 25 2 35 4 23 2 -13 2 -33 0 -45z m-1107 -48 c0 -5 -4 -10
-10 -10 -5 0 -10 5 -10 10 0 6 5 10 10 10 6 0 10 -4 10 -10z m1267 -6 c-3 -3
-12 -4 -19 -1 -8 3 -5 6 6 6 11 1 17 -2 13 -5z m-2270 -50 c-3 -3 -12 -4 -19
-1 -8 3 -5 6 6 6 11 1 17 -2 13 -5z m2750 -16 c-3 -8 -6 -5 -6 6 -1 11 2 17 5
13 3 -3 4 -12 1 -19z m-30 -50 c-3 -8 -6 -5 -6 6 -1 11 2 17 5 13 3 -3 4 -12
1 -19z m-110 -20 c-3 -8 -6 -5 -6 6 -1 11 2 17 5 13 3 -3 4 -12 1 -19z m-2747
-33 c0 -26 -14 -33 -25 -15 -9 14 1 40 15 40 5 0 10 -11 10 -25z m2690 21 c0
-7 -71 -46 -83 -46 -7 0 6 11 28 24 39 24 55 30 55 22z m110 -6 c0 -5 -4 -10
-10 -10 -5 0 -10 5 -10 10 0 6 5 10 10 10 6 0 10 -4 10 -10z m-2200 -84 c0 -8
-4 -18 -10 -21 -5 -3 -10 3 -10 14 0 12 5 21 10 21 6 0 10 -6 10 -14z m-290
-16 c-21 -38 -3 -179 21 -164 5 3 9 -1 9 -9 0 -8 -10 -17 -21 -20 -15 -4 -20
-11 -16 -21 4 -9 1 -16 -6 -16 -7 0 -12 14 -12 35 0 19 4 35 8 35 5 0 5 9 2
21 -4 12 -7 36 -7 55 0 19 -4 34 -9 34 -14 0 -11 19 9 45 21 29 37 33 22 5z
m26 -47 c-11 -11 -19 6 -11 24 8 17 8 17 12 0 3 -10 2 -21 -1 -24z m294 22
c-7 -8 -18 -15 -24 -15 -6 0 -2 7 8 15 25 19 32 19 16 0z m1408 -20 c-3 -3 -9
2 -12 12 -6 14 -5 15 5 6 7 -7 10 -15 7 -18z m-691 -41 c-3 -3 -12 -4 -19 -1
-8 3 -5 6 6 6 11 1 17 -2 13 -5z m-4 -31 c-7 -2 -19 -2 -25 0 -7 3 -2 5 12 5
14 0 19 -2 13 -5z m-928 -112 c-6 -5 -25 10 -25 20 0 5 6 4 14 -3 8 -7 12 -15
11 -17z m-55 -1 c13 -9 13 -10 0 -10 -8 0 -22 5 -30 10 -13 9 -13 10 0 10 8 0
22 -5 30 -10z m175 0 c-3 -5 -11 -10 -16 -10 -6 0 -7 5 -4 10 3 6 11 10 16 10
6 0 7 -4 4 -10z m20 -60 c7 -11 -18 -40 -34 -40 -6 0 -11 5 -11 10 0 6 5 10
11 10 6 0 9 7 5 15 -6 17 19 21 29 5z m1775 -9 c0 -6 -4 -13 -10 -16 -5 -3
-10 1 -10 9 0 9 5 16 10 16 6 0 10 -4 10 -9z m330 -1 c0 -5 -4 -10 -10 -10 -5
0 -10 5 -10 10 0 6 5 10 10 10 6 0 10 -4 10 -10z m-370 -62 c0 -13 -32 -6 -37
9 -3 7 3 9 16 6 12 -3 21 -10 21 -15z m-2230 -8 c0 -5 -4 -10 -10 -10 -5 0
-10 5 -10 10 0 6 5 10 10 10 6 0 10 -4 10 -10z m30 -40 c0 -5 -4 -10 -10 -10
-5 0 -10 5 -10 10 0 6 5 10 10 10 6 0 10 -4 10 -10z m440 -44 c0 -3 -4 -8 -10
-11 -5 -3 -10 -1 -10 4 0 6 5 11 10 11 6 0 10 -2 10 -4z m148 -35 c3 -8 -1
-12 -9 -9 -7 2 -15 10 -17 17 -3 8 1 12 9 9 7 -2 15 -10 17 -17z m0 -70 c-1
-16 2 -33 6 -40 10 -15 -5 -14 -26 3 -19 14 -25 32 -8 21 6 -3 10 1 10 9 0 10
-6 13 -16 9 -12 -4 -15 -2 -12 8 3 8 11 13 17 11 9 -2 9 3 0 20 -12 23 -12 23
9 5 12 -11 20 -30 20 -46z m-124 34 c-4 -8 -8 -15 -10 -15 -2 0 -4 7 -4 15 0
8 4 15 10 15 5 0 7 -7 4 -15z m76 -5 c0 -5 -7 -10 -15 -10 -8 0 -15 -6 -15
-12 0 -9 -3 -8 -9 2 -6 8 -7 18 -5 22 7 12 44 10 44 -2z m-83 -36 c-3 -3 -12
-4 -19 -1 -8 3 -5 6 6 6 11 1 17 -2 13 -5z m21 -32 c-20 -2 -25 -7 -21 -20 6
-14 5 -15 -9 -2 -20 20 -2 38 31 31 l26 -6 -27 -3z m-415 -44 c3 -21 2 -38 -4
-38 -5 0 -9 7 -9 15 0 8 -8 15 -17 15 -17 1 -17 2 1 15 12 9 16 20 12 32 -5
11 -4 14 2 8 5 -5 12 -27 15 -47z m2544 20 c-3 -8 -6 -5 -6 6 -1 11 2 17 5 13
3 -3 4 -12 1 -19z m-57 -66 c0 -5 -7 -17 -15 -28 -14 -19 -14 -19 -15 2 0 11
3 24 7 27 9 10 23 9 23 -1z m-2055 -32 c-3 -5 -11 -10 -16 -10 -6 0 -7 5 -4
10 3 6 11 10 16 10 6 0 7 -4 4 -10z m36 -13 c-10 -9 -11 -8 -5 6 3 10 9 15 12
12 3 -3 0 -11 -7 -18z m-454 -21 c-4 -9 -11 -16 -16 -16 -15 0 -23 33 -9 41
17 11 32 -5 25 -25z m-74 -23 c3 -16 8 -38 12 -50 12 -39 -9 -25 -28 17 -21
49 -21 60 -3 60 7 0 16 -12 19 -27z m564 5 c-3 -8 -6 -5 -6 6 -1 11 2 17 5 13
3 -3 4 -12 1 -19z m-480 -40 c-3 -8 -6 -5 -6 6 -1 11 2 17 5 13 3 -3 4 -12 1
-19z m603 -3 c8 -9 8 -15 2 -15 -18 0 -42 12 -42 21 0 14 26 10 40 -6z m0 -90
c0 -2 -7 -5 -15 -9 -9 -3 -15 0 -15 9 0 9 6 12 15 9 8 -4 15 -7 15 -9z m-592
-55 c0 -9 -3 -7 -8 5 -5 11 -8 29 -8 40 0 16 2 15 8 -5 4 -14 8 -32 8 -40z
m48 -56 c-3 -8 -2 -14 3 -14 9 0 43 -81 37 -88 -9 -8 -37 48 -30 59 5 9 2 10
-12 5 -10 -4 -15 -4 -11 0 4 4 3 12 -2 18 -4 6 -11 21 -14 33 -4 20 -3 21 15
12 11 -6 17 -17 14 -25z m601 -36 c-3 -8 -6 -5 -6 6 -1 11 2 17 5 13 3 -3 4
-12 1 -19z m-537 -97 c0 -6 -4 -13 -10 -16 -5 -3 -10 1 -10 9 0 9 5 16 10 16
6 0 10 -4 10 -9z m1084 -95 c-2 -6 16 -19 41 -29 25 -11 45 -23 45 -28 0 -14
-16 -11 -29 5 -7 8 -26 18 -42 21 -16 4 -29 11 -29 16 0 5 -7 9 -15 9 -8 0
-15 6 -15 14 0 9 8 12 24 9 14 -3 23 -10 20 -17z m375 -12 c-7 -8 -6 -14 3
-18 7 -3 2 -3 -12 0 -13 4 -30 13 -37 20 -12 11 -8 13 21 12 27 -1 33 -4 25
-14z m-28 -24 c20 -11 25 -35 9 -45 -5 -3 -7 0 -4 9 3 9 -2 17 -15 21 -12 3
-21 11 -21 16 0 12 7 11 31 -1z m-331 -9 c0 -10 -50 -25 -58 -16 -3 3 2 5 11
5 10 0 17 5 17 10 0 6 7 10 15 10 8 0 15 -4 15 -9z m210 -17 c0 -2 -9 -4 -20
-4 -11 0 -20 4 -20 9 0 5 9 7 20 4 11 -3 20 -7 20 -9z"/>
<path d="M1646 3394 c-4 -12 -1 -14 14 -9 11 4 20 2 20 -4 0 -6 -14 -11 -31
-11 -38 0 -35 -24 4 -28 19 -2 27 1 27 12 0 9 3 16 6 16 11 0 33 -28 26 -34
-3 -4 2 -4 11 0 25 9 18 21 -30 49 -35 21 -42 23 -47 9z"/>
<path d="M1808 3373 c7 -3 16 -2 19 1 4 3 -2 6 -13 5 -11 0 -14 -3 -6 -6z"/>
<path d="M1827 3349 c-10 -6 -25 -8 -33 -5 -21 8 -17 -2 7 -14 15 -8 24 -8 34
0 8 7 19 8 26 4 7 -4 10 -2 7 6 -6 19 -20 21 -41 9z"/>
<path d="M1110 3210 l-25 -8 28 -1 c15 -1 27 4 27 9 0 6 -1 10 -2 9 -2 -1 -14
-5 -28 -9z"/>
<path d="M2940 2929 c0 -5 5 -7 10 -4 6 3 10 8 10 11 0 2 -4 4 -10 4 -5 0 -10
-5 -10 -11z"/>
<path d="M3055 2919 c-11 -16 -1 -19 13 -3 7 8 8 14 3 14 -5 0 -13 -5 -16 -11z"/>
<path d="M2918 2903 c7 -3 16 -2 19 1 4 3 -2 6 -13 5 -11 0 -14 -3 -6 -6z"/>
<path d="M685 2860 c-3 -5 -1 -10 4 -10 6 0 11 5 11 10 0 6 -2 10 -4 10 -3 0
-8 -4 -11 -10z"/>
<path d="M3065 2860 c-3 -5 1 -10 9 -10 9 0 16 5 16 10 0 6 -4 10 -9 10 -6 0
-13 -4 -16 -10z"/>
<path d="M3372 2770 c0 -14 2 -19 5 -12 2 6 2 18 0 25 -3 6 -5 1 -5 -13z"/>
<path d="M3276 2757 c3 -10 9 -15 12 -12 3 3 0 11 -7 18 -10 9 -11 8 -5 -6z"/>
<path d="M3384 2742 c-6 -4 -14 -17 -18 -28 -5 -16 -2 -23 13 -27 17 -4 19 0
18 29 -1 19 -2 34 -2 34 0 0 -5 -4 -11 -8z"/>
<path d="M3331 2674 c0 -11 3 -14 6 -6 3 7 2 16 -1 19 -3 4 -6 -2 -5 -13z"/>
<path d="M3356 2668 c4 -6 6 -32 6 -57 -1 -25 2 -52 7 -59 14 -22 23 35 10 59
-9 17 -8 20 2 14 9 -6 11 -3 6 9 -4 10 -7 21 -7 26 0 4 -7 11 -16 14 -10 4
-13 2 -8 -6z"/>
<path d="M3396 2624 c-8 -20 0 -32 14 -18 5 5 5 15 1 22 -6 11 -10 10 -15 -4z"/>
<path d="M1168 2553 c7 -3 16 -2 19 1 4 3 -2 6 -13 5 -11 0 -14 -3 -6 -6z"/>
<path d="M2170 2526 c0 -20 -4 -36 -8 -36 -5 0 -17 -7 -28 -15 -17 -13 -15
-14 36 -14 48 0 53 1 38 13 -11 8 -18 26 -18 44 0 17 -4 34 -10 37 -6 4 -10
-8 -10 -29z"/>
<path d="M2830 2540 c0 -5 5 -10 10 -10 6 0 10 5 10 10 0 6 -4 10 -10 10 -5 0
-10 -4 -10 -10z"/>
<path d="M1137 2529 c7 -7 15 -10 18 -7 3 3 -2 9 -12 12 -14 6 -15 5 -6 -5z"/>
<path d="M1937 2489 c-4 -16 -3 -18 9 -8 16 13 19 29 5 29 -5 0 -11 -9 -14
-21z"/>
<path d="M2830 2455 c-16 -19 0 -19 26 0 16 12 16 14 3 15 -9 0 -22 -7 -29
-15z"/>
<path d="M3414 2439 c-3 -6 -1 -16 5 -22 8 -8 11 -5 11 11 0 24 -5 28 -16 11z"/>
<path d="M1940 2420 c0 -5 5 -10 10 -10 6 0 10 5 10 10 0 6 -4 10 -10 10 -5 0
-10 -4 -10 -10z"/>
<path d="M740 2400 c0 -5 4 -10 9 -10 5 0 18 -3 28 -6 16 -6 16 -5 -2 9 -23
19 -35 21 -35 7z"/>
<path d="M3360 2383 c0 -5 5 -15 10 -23 8 -12 10 -11 10 8 0 12 -4 22 -10 22
-5 0 -10 -3 -10 -7z"/>
<path d="M1968 2273 c12 -2 32 -2 45 0 12 2 2 4 -23 4 -25 0 -35 -2 -22 -4z"/>
<path d="M470 2176 c0 -9 5 -16 10 -16 6 0 10 4 10 9 0 6 -4 13 -10 16 -5 3
-10 -1 -10 -9z"/>
<path d="M560 2166 c0 -8 -5 -16 -12 -18 -8 -3 -5 -12 10 -28 12 -13 22 -28
22 -34 0 -6 5 -5 12 2 10 10 7 16 -10 28 -16 11 -21 21 -16 40 3 13 3 24 0 24
-3 0 -6 -6 -6 -14z"/>
<path d="M3281 2164 c0 -11 3 -14 6 -6 3 7 2 16 -1 19 -3 4 -6 -2 -5 -13z"/>
<path d="M680 2090 c0 -5 5 -10 11 -10 5 0 7 5 4 10 -3 6 -8 10 -11 10 -2 0
-4 -4 -4 -10z"/>
<path d="M456 2065 c-11 -8 -15 -15 -10 -15 6 0 19 7 30 15 10 8 15 14 9 14
-5 0 -19 -6 -29 -14z"/>
<path d="M1876 2031 c-4 -7 -5 -15 -2 -18 9 -9 19 4 14 18 -4 11 -6 11 -12 0z"/>
<path d="M465 1980 c3 -5 10 -10 16 -10 5 0 9 5 9 10 0 6 -7 10 -16 10 -8 0
-12 -4 -9 -10z"/>
<path d="M18 1973 c-16 -4 -16 -6 -3 -20 8 -8 13 -19 10 -24 -4 -5 -2 -9 3 -9
5 0 9 13 8 30 -1 16 -1 29 -1 29 0 -1 -8 -3 -17 -6z"/>
<path d="M1872 1950 c0 -14 2 -19 5 -12 2 6 2 18 0 25 -3 6 -5 1 -5 -13z"/>
<path d="M1808 1898 c-15 -15 -15 -18 -3 -18 8 0 15 -7 15 -16 0 -8 5 -12 10
-9 12 7 14 52 3 58 -5 2 -16 -4 -25 -15z"/>
<path d="M3281 1834 c0 -11 3 -14 6 -6 3 7 2 16 -1 19 -3 4 -6 -2 -5 -13z"/>
<path d="M3240 1811 c0 -6 5 -13 10 -16 6 -3 10 1 10 9 0 9 -4 16 -10 16 -5 0
-10 -4 -10 -9z"/>
<path d="M3290 1776 c0 -19 5 -38 10 -41 6 -4 10 8 10 29 0 19 -4 38 -10 41
-6 4 -10 -8 -10 -29z"/>
<path d="M2325 1770 c-3 -5 -1 -10 4 -10 6 0 11 5 11 10 0 6 -2 10 -4 10 -3 0
-8 -4 -11 -10z"/>
<path d="M898 1653 c7 -3 16 -2 19 1 4 3 -2 6 -13 5 -11 0 -14 -3 -6 -6z"/>
<path d="M2430 1540 c0 -5 9 -10 20 -10 11 0 20 5 20 10 0 6 -9 10 -20 10 -11
0 -20 -4 -20 -10z"/>
<path d="M3227 1510 c-18 -22 -23 -50 -8 -50 10 0 36 58 29 65 -2 2 -12 -5
-21 -15z"/>
<path d="M957 1489 c-10 -11 -16 -23 -13 -26 8 -8 38 25 34 37 -2 6 -11 1 -21
-11z"/>
<path d="M2770 1460 c0 -5 7 -10 16 -10 8 0 12 5 9 10 -3 6 -10 10 -16 10 -5
0 -9 -4 -9 -10z"/>
<path d="M930 1440 c0 -5 5 -10 10 -10 6 0 10 5 10 10 0 6 -4 10 -10 10 -5 0
-10 -4 -10 -10z"/>
<path d="M2756 1427 c3 -10 9 -15 12 -12 3 3 0 11 -7 18 -10 9 -11 8 -5 -6z"/>
<path d="M890 1414 c0 -7 27 -34 34 -34 13 0 5 16 -14 28 -11 7 -20 10 -20 6z"/>
<path d="M2646 1401 c-4 -7 -5 -15 -2 -18 9 -9 19 4 14 18 -4 11 -6 11 -12 0z"/>
<path d="M3096 1393 c-3 -3 -6 -20 -6 -36 0 -25 2 -28 15 -17 8 7 15 21 15 31
0 19 -13 32 -24 22z"/>
<path d="M2701 1354 c0 -11 3 -14 6 -6 3 7 2 16 -1 19 -3 4 -6 -2 -5 -13z"/>
<path d="M980 1350 c0 -5 7 -10 15 -10 8 0 15 5 15 10 0 6 -7 10 -15 10 -8 0
-15 -4 -15 -10z"/>
<path d="M2660 1320 c0 -5 5 -10 10 -10 6 0 10 -9 10 -20 0 -11 5 -20 10 -20
14 0 12 22 -4 43 -15 19 -26 22 -26 7z"/>
<path d="M2730 1315 c0 -8 4 -15 10 -15 5 0 7 7 4 15 -4 8 -8 15 -10 15 -2 0
-4 -7 -4 -15z"/>
<path d="M2996 1315 c-3 -8 -1 -15 4 -15 6 0 10 7 10 15 0 8 -2 15 -4 15 -2 0
-6 -7 -10 -15z"/>
<path d="M2620 1300 c8 -5 22 -9 30 -9 10 0 8 3 -5 9 -27 12 -43 12 -25 0z"/>
<path d="M3046 1295 c-3 -8 -1 -15 4 -15 6 0 10 7 10 15 0 8 -2 15 -4 15 -2 0
-6 -7 -10 -15z"/>
<path d="M3170 1289 c0 -7 -10 -9 -25 -5 -16 4 -25 2 -25 -5 0 -6 -6 -9 -14
-6 -16 6 -26 -13 -26 -49 0 -13 -4 -24 -9 -24 -5 0 -11 -7 -15 -15 -5 -13 -1
-13 26 1 42 22 84 64 93 92 3 12 4 22 1 22 -3 0 -6 -5 -6 -11z"/>
<path d="M1068 1273 c7 -3 16 -2 19 1 4 3 -2 6 -13 5 -11 0 -14 -3 -6 -6z"/>
<path d="M1050 1235 c0 -8 2 -15 4 -15 2 0 6 7 10 15 3 8 1 15 -4 15 -6 0 -10
-7 -10 -15z"/>
<path d="M2715 1240 c3 -5 8 -10 11 -10 2 0 4 5 4 10 0 6 -5 10 -11 10 -5 0
-7 -4 -4 -10z"/>
<path d="M2750 1241 c0 -5 5 -13 10 -16 6 -3 10 -2 10 4 0 5 -4 13 -10 16 -5
3 -10 2 -10 -4z"/>
<path d="M2790 1230 c0 -5 7 -10 16 -10 8 0 12 5 9 10 -3 6 -10 10 -16 10 -5
0 -9 -4 -9 -10z"/>
<path d="M2241 1204 c0 -11 3 -14 6 -6 3 7 2 16 -1 19 -3 4 -6 -2 -5 -13z"/>
<path d="M2367 1188 c-5 -37 6 -68 17 -49 4 6 3 11 -3 11 -6 0 -7 15 -4 35 3
19 3 35 0 35 -2 0 -7 -15 -10 -32z"/>
<path d="M2830 1205 c0 -9 6 -12 15 -9 8 4 15 10 15 15 0 5 -7 9 -15 9 -8 0
-15 -7 -15 -15z"/>
<path d="M2260 1170 c0 -11 5 -20 10 -20 6 0 10 9 10 20 0 11 -4 20 -10 20 -5
0 -10 -9 -10 -20z"/>
<path d="M895 1160 c-3 -5 -1 -10 4 -10 6 0 11 5 11 10 0 6 -2 10 -4 10 -3 0
-8 -4 -11 -10z"/>
<path d="M2705 1160 c-3 -5 0 -10 9 -10 8 0 17 -6 19 -12 4 -8 6 -9 6 -2 1 18
-26 37 -34 24z"/>
<path d="M2821 1144 c0 -11 3 -14 6 -6 3 7 2 16 -1 19 -3 4 -6 -2 -5 -13z"/>
<path d="M1190 1140 c-12 -8 -10 -10 8 -10 13 0 20 4 17 10 -7 12 -6 12 -25 0z"/>
<path d="M2221 1113 c1 -28 3 -31 6 -13 3 14 10 31 15 38 8 9 6 12 -6 12 -12
0 -16 -9 -15 -37z"/>
<path d="M2182 1128 c-16 -16 -15 -28 3 -28 8 0 15 9 15 20 0 23 -2 24 -18 8z"/>
<path d="M2260 1126 c0 -8 10 -22 22 -30 21 -15 15 -21 -17 -17 -6 0 -11 -8
-11 -19 0 -13 5 -19 13 -16 29 11 11 -26 -19 -38 -27 -12 -34 -12 -46 1 -8 8
-24 12 -35 9 -12 -3 -26 -1 -33 5 -9 7 -31 1 -75 -20 -54 -26 -65 -28 -72 -15
-5 9 -16 13 -28 9 -11 -4 -19 -2 -19 6 0 9 -4 8 -15 -1 -10 -9 -15 -9 -15 -1
0 15 -57 14 -63 -1 -4 -9 -8 -9 -14 -3 -11 13 -43 15 -43 3 0 -5 -17 -8 -39
-7 -26 2 -44 -3 -55 -14 -21 -21 -46 -22 -46 -2 0 8 -5 15 -11 15 -6 0 -9 -7
-5 -15 4 -11 -2 -15 -24 -15 -17 0 -30 5 -30 11 0 5 -4 7 -10 4 -5 -3 -10 -1
-10 5 0 7 -12 10 -28 9 -15 -2 -32 0 -39 4 -7 5 -9 0 -6 -13 4 -15 0 -20 -16
-20 -11 0 -21 6 -21 14 0 8 -7 17 -16 20 -11 4 -14 1 -9 -13 7 -24 -16 -42
-58 -44 -25 -1 -32 -5 -26 -13 5 -7 8 -26 7 -43 -2 -25 -6 -30 -20 -25 -22 7
-24 -12 -2 -20 14 -6 40 0 104 22 8 3 21 4 28 3 6 -1 12 3 12 8 0 6 34 10 84
10 46 -1 90 2 97 6 8 5 10 4 5 -3 -4 -7 -1 -12 8 -12 9 0 16 5 16 11 0 6 23 9
60 7 33 -2 60 -6 60 -9 0 -3 52 -6 115 -5 63 1 115 -3 115 -7 0 -5 10 -5 22
-1 28 8 177 9 203 1 11 -4 48 -9 82 -11 57 -4 112 -28 113 -48 0 -5 7 -8 16
-8 8 0 12 -4 9 -10 -3 -5 -1 -10 5 -10 7 0 9 8 5 20 -5 14 -2 20 10 20 12 0
14 7 9 28 -4 18 -3 23 4 13 12 -17 24 1 16 24 -4 10 -1 21 7 26 12 8 12 11 -1
19 -25 16 -50 11 -60 -12 -9 -23 -9 -23 -10 2 -1 14 -4 19 -7 13 -2 -7 -12
-13 -21 -13 -13 0 -14 2 -4 9 11 6 11 13 3 30 -27 53 -31 61 -31 71 0 5 5 10
10 10 6 0 10 -8 8 -17 -2 -11 4 -18 17 -20 20 -3 20 -3 0 5 -19 9 -19 9 0 20
18 10 18 11 3 12 -10 0 -18 5 -18 10 0 6 5 10 11 10 5 0 7 5 3 11 -4 8 -9 7
-15 -2 -8 -12 -11 -12 -18 1 -6 8 -13 11 -18 7 -4 -5 -1 -12 7 -18 13 -8 13
-11 -2 -20 -10 -5 -18 -16 -18 -24 0 -8 -7 -11 -20 -8 -11 3 -20 9 -20 14 0 5
9 9 20 9 21 0 27 15 10 25 -5 3 -10 15 -10 26 0 21 -10 25 -27 8 -8 -8 -13 -5
-18 12 -11 36 -45 54 -45 25z m75 -124 c18 -10 18 -11 2 -12 -21 0 -49 24 -40
34 4 3 9 2 12 -2 3 -5 15 -14 26 -20z m-41 -18 c9 -3 16 -10 16 -15 0 -14 -26
-10 -40 6 -13 16 -3 20 24 9z"/>
<path d="M2005 1120 c-3 -5 -1 -10 4 -10 6 0 11 5 11 10 0 6 -2 10 -4 10 -3 0
-8 -4 -11 -10z"/>
<path d="M2386 1115 c-3 -8 -1 -15 4 -15 6 0 10 7 10 15 0 8 -2 15 -4 15 -2 0
-6 -7 -10 -15z"/>
<path d="M2635 1120 c3 -5 10 -10 16 -10 5 0 9 5 9 10 0 6 -7 10 -16 10 -8 0
-12 -4 -9 -10z"/>
<path d="M2960 1107 c0 -8 6 -14 14 -14 8 0 12 6 9 14 -3 7 -9 13 -14 13 -5 0
-9 -6 -9 -13z"/>
<path d="M2456 1083 c-8 -20 -5 -22 15 -14 14 5 15 8 4 18 -10 10 -15 9 -19
-4z"/>
<path d="M2923 1064 c-3 -8 -1 -20 6 -27 8 -8 11 -4 11 16 0 30 -7 35 -17 11z"/>
<path d="M2960 1040 c0 -41 1 -43 16 -28 14 14 14 18 0 44 l-15 29 -1 -45z"/>
<path d="M2475 1050 c-3 -5 -1 -10 4 -10 6 0 11 5 11 10 0 6 -2 10 -4 10 -3 0
-8 -4 -11 -10z"/>
<path d="M2810 1040 c0 -5 7 -10 15 -10 8 0 15 5 15 10 0 6 -7 10 -15 10 -8 0
-15 -4 -15 -10z"/>
<path d="M1580 1020 c19 -13 30 -13 30 0 0 6 -10 10 -22 10 -19 0 -20 -2 -8
-10z"/>
<path d="M242 965 c0 -16 2 -22 5 -12 2 9 2 23 0 30 -3 6 -5 -1 -5 -18z"/>
<path d="M1335 960 c-3 -5 -1 -10 4 -10 6 0 11 5 11 10 0 6 -2 10 -4 10 -3 0
-8 -4 -11 -10z"/>
<path d="M2896 954 c-19 -18 -21 -34 -4 -34 6 0 9 3 5 6 -7 7 12 28 33 37 12
4 12 6 -2 6 -9 1 -24 -6 -32 -15z"/>
<path d="M1325 890 c3 -5 8 -10 11 -10 2 0 4 5 4 10 0 6 -5 10 -11 10 -5 0 -7
-4 -4 -10z"/>
<path d="M971 824 c0 -11 3 -14 6 -6 3 7 2 16 -1 19 -3 4 -6 -2 -5 -13z"/>
<path d="M1575 810 c3 -5 12 -10 20 -10 8 0 17 5 20 10 4 6 -5 10 -20 10 -15
0 -24 -4 -20 -10z"/>
<path d="M1620 794 c-39 -14 -41 -30 -7 -56 21 -17 22 -17 3 -31 -11 -8 -16
-19 -12 -25 11 -17 24 -14 22 4 0 9 5 19 12 21 6 3 12 -2 12 -11 0 -9 8 -16
19 -16 11 0 22 -4 25 -9 3 -5 20 -8 37 -7 17 1 33 -3 36 -10 2 -7 11 -15 18
-18 9 -3 12 0 8 10 -3 8 1 14 11 14 9 0 16 -4 16 -9 0 -6 30 -10 68 -9 83 1
172 -11 172 -23 0 -5 10 -9 23 -9 15 0 34 -13 51 -35 22 -28 35 -35 62 -35 36
0 46 15 17 23 -14 4 -13 5 3 6 12 0 24 -6 28 -14 3 -8 18 -15 33 -15 22 0 25
-2 13 -10 -13 -8 -12 -10 3 -10 9 0 17 -4 17 -10 0 -5 9 -10 20 -10 11 0 20 5
20 10 0 6 -9 10 -21 10 -11 0 -17 5 -14 10 9 14 48 12 64 -2 10 -9 12 -9 7 -1
-3 6 -2 14 4 18 5 3 10 0 10 -7 0 -9 3 -9 10 2 8 13 10 12 10 -2 0 -10 5 -18
10 -18 6 0 10 6 10 14 0 9 9 13 25 11 14 -1 25 2 25 6 0 5 11 11 25 15 25 6
33 28 15 39 -6 4 -2 15 10 27 25 27 25 40 1 55 -17 11 -19 8 -25 -28 -5 -32
-10 -39 -29 -39 -16 0 -23 6 -23 20 0 12 6 19 15 17 25 -4 23 20 -4 27 -16 4
-25 13 -25 27 0 18 -5 19 -51 16 -34 -3 -47 -1 -40 6 7 7 2 14 -15 24 -15 7
-29 11 -33 8 -4 -2 -7 6 -7 18 1 19 -3 22 -34 19 -19 -2 -36 -8 -38 -13 -2 -5
-20 -9 -39 -9 -19 0 -63 -7 -97 -16 -62 -16 -192 -14 -205 3 -3 5 -31 8 -61 8
-30 1 -82 7 -115 16 -48 12 -67 12 -95 3z m757 -90 c-3 -3 -12 -4 -19 -1 -8 3
-5 6 6 6 11 1 17 -2 13 -5z m128 -104 c3 -5 -1 -10 -10 -10 -9 0 -13 5 -10 10
3 6 8 10 10 10 2 0 7 -4 10 -10z m-128 -36 c-3 -3 -12 -4 -19 -1 -8 3 -5 6 6
6 11 1 17 -2 13 -5z"/>
<path d="M1295 780 c-3 -5 -1 -10 4 -10 6 0 11 5 11 10 0 6 -2 10 -4 10 -3 0
-8 -4 -11 -10z"/>
<path d="M2458 733 c5 -21 7 -23 10 -9 2 10 0 22 -6 28 -6 6 -7 0 -4 -19z"/>
<path d="M1530 721 c0 -5 -10 -12 -22 -14 l-23 -4 23 -2 c29 -1 28 -9 -5 -37
-16 -13 -24 -24 -19 -24 5 0 3 -7 -4 -15 -18 -21 12 -20 45 1 15 10 25 12 25
5 0 -6 -4 -11 -10 -11 -5 0 -7 -7 -3 -16 5 -14 1 -15 -28 -10 -29 5 -31 5 -10
-4 29 -13 61 -4 61 16 0 8 4 14 9 14 5 0 7 -9 4 -19 -4 -16 1 -20 29 -23 20
-2 32 -8 31 -15 -2 -7 2 -13 7 -13 5 0 10 9 10 20 0 16 7 20 33 21 17 1 35 1
40 0 4 0 7 5 7 13 0 8 8 16 18 19 16 4 16 4 -1 12 -9 4 -29 4 -45 0 -25 -7
-25 -8 -7 -15 12 -4 -6 -7 -45 -7 -38 0 -49 2 -26 4 41 5 72 26 61 43 -9 15
-51 12 -65 -5 -7 -8 -18 -15 -24 -14 -7 0 -6 2 2 6 18 7 15 21 -9 28 -12 4
-18 12 -15 21 4 9 -2 14 -15 14 -11 0 -17 5 -14 10 3 6 1 10 -4 10 -6 0 -11
-4 -11 -9z"/>
<path d="M2730 720 c0 -5 5 -10 10 -10 6 0 10 5 10 10 0 6 -4 10 -10 10 -5 0
-10 -4 -10 -10z"/>
<path d="M1105 710 c3 -5 8 -10 11 -10 2 0 4 5 4 10 0 6 -5 10 -11 10 -5 0 -7
-4 -4 -10z"/>
<path d="M2746 677 c3 -10 9 -15 12 -12 3 3 0 11 -7 18 -10 9 -11 8 -5 -6z"/>
<path d="M1200 669 c0 -5 5 -7 10 -4 6 3 10 8 10 11 0 2 -4 4 -10 4 -5 0 -10
-5 -10 -11z"/>
<path d="M1140 660 c0 -5 5 -10 10 -10 6 0 10 5 10 10 0 6 -4 10 -10 10 -5 0
-10 -4 -10 -10z"/>
<path d="M1375 660 c-3 -5 1 -10 10 -10 9 0 13 5 10 10 -3 6 -8 10 -10 10 -2
0 -7 -4 -10 -10z"/>
<path d="M1445 660 c3 -5 10 -10 16 -10 5 0 9 5 9 10 0 6 -7 10 -16 10 -8 0
-12 -4 -9 -10z"/>
<path d="M1420 639 c0 -5 5 -7 10 -4 6 3 10 8 10 11 0 2 -4 4 -10 4 -5 0 -10
-5 -10 -11z"/>
<path d="M1355 630 c3 -5 8 -10 11 -10 2 0 4 5 4 10 0 6 -5 10 -11 10 -5 0 -7
-4 -4 -10z"/>
<path d="M1882 610 c0 -14 2 -19 5 -12 2 6 2 18 0 25 -3 6 -5 1 -5 -13z"/>
<path d="M1196 575 c-4 -11 1 -14 19 -13 18 2 21 5 13 15 -14 17 -25 16 -32
-2z"/>
<path d="M2070 580 c0 -5 5 -10 10 -10 6 0 10 5 10 10 0 6 -4 10 -10 10 -5 0
-10 -4 -10 -10z"/>
<path d="M2095 560 c-3 -6 1 -7 9 -4 18 7 21 14 7 14 -6 0 -13 -4 -16 -10z"/>
<path d="M2126 516 c3 -9 11 -16 16 -16 13 0 5 23 -10 28 -7 2 -10 -2 -6 -12z"/>
<path d="M2450 509 c0 -5 5 -7 10 -4 6 3 10 8 10 11 0 2 -4 4 -10 4 -5 0 -10
-5 -10 -11z"/>
<path d="M2533 513 c-15 -5 -18 -43 -4 -43 5 0 11 10 14 22 7 26 6 27 -10 21z"/>
<path d="M2258 503 c7 -3 16 -2 19 1 4 3 -2 6 -13 5 -11 0 -14 -3 -6 -6z"/>
<path d="M1680 463 c0 -15 19 -37 26 -31 3 4 -1 14 -10 23 -9 9 -16 13 -16 8z"/>
<path d="M1756 447 c3 -10 9 -15 12 -12 3 3 0 11 -7 18 -10 9 -11 8 -5 -6z"/>
<path d="M1670 411 c0 -25 6 -27 13 -6 4 8 2 17 -3 20 -6 4 -10 -3 -10 -14z"/>
<path d="M2070 360 c0 -5 5 -10 10 -10 6 0 10 5 10 10 0 6 -4 10 -10 10 -5 0
-10 -4 -10 -10z"/>
<path d="M1915 300 c-3 -5 -1 -10 4 -10 6 0 11 5 11 10 0 6 -2 10 -4 10 -3 0
-8 -4 -11 -10z"/>
</g>
</svg>
